<svg xmlns:dc="http://purl.org/dc/elements/1.1/" xmlns:cc="http://creativecommons.org/ns#" xmlns:rdf="http://www.w3.org/1999/02/22-rdf-syntax-ns#" xmlns:svg="http://www.w3.org/2000/svg" xmlns="http://www.w3.org/2000/svg" xmlns:xlink="http://www.w3.org/1999/xlink" id="svg139087" viewBox="0 0 1024 768" height="768px" width="1024px" version="1.1">
  <metadata id="metadata139093">
    <rdf:rdf>
      <cc:work rdf:about="">
        <dc:format>image/svg+xml</dc:format>
        <dc:type rdf:resource="http://purl.org/dc/dcmitype/StillImage"></dc:type>
      </cc:work>
    </rdf:rdf>
  </metadata>
  <defs id="defs139091"></defs>
  <linearGradient spreadMethod="pad" y2="30%" x2="-10%" y1="120%" x1="30%" id="3d_gradient2-logo-09fd663e-0836-4cf9-bb5d-c28e16813d22">
    <stop id="stop139068" stop-opacity="1" stop-color="#ffffff" offset="0%"></stop>
    <stop id="stop139070" stop-opacity="1" stop-color="#000000" offset="100%"></stop>
  </linearGradient>
  <linearGradient gradientTransform="rotate(-30)" spreadMethod="pad" y2="30%" x2="-10%" y1="120%" x1="30%" id="3d_gradient3-logo-09fd663e-0836-4cf9-bb5d-c28e16813d22">
    <stop id="stop139073" stop-opacity="1" stop-color="#ffffff" offset="0%"></stop>
    <stop id="stop139075" stop-opacity="1" stop-color="#cccccc" offset="50%"></stop>
    <stop id="stop139077" stop-opacity="1" stop-color="#000000" offset="100%"></stop>
  </linearGradient>
  <g id="logo-group">
    <image xlink:href="" id="container" x="272" y="144" width="480" height="480" style="display: none;" transform="translate(0 0)"></image>
    <g id="logo-center" transform="translate(0 0)">
      <image xlink:href="" id="icon_container" style="display: none;" x="0" y="0"></image>
      <g id="slogan" style="font-style:normal;font-weight:700;font-size:32px;line-height:1;font-family:'Meedori Sans';font-variant-ligatures:none;text-align:center;text-anchor:middle" transform="translate(0 0)">
        <path id="path139095" style="font-style:normal;font-weight:700;font-size:32px;line-height:1;font-family:'Meedori Sans';font-variant-ligatures:none;text-align:center;text-anchor:middle" d="m 344.40975,-14.208 q 0.256,0.032 0.864,0.128 0.64,0.096 1.408,0.384 0.8,0.256 1.632,0.704 0.832,0.448 1.504,1.248 0.672,0.768 1.12,1.888 0.448,1.12 0.448,2.688 0,0.064 -0.064,0.64 -0.032,0.544 -0.288,1.344 -0.256,0.8 -0.768,1.696 -0.512,0.896 -1.472,1.696 -0.96,0.768 -2.432,1.28 -1.44,0.512 -3.552,0.512 -1.952,0 -3.712,-0.8 -1.728,-0.832 -2.976,-2.272 l 3.264,-2.528 q 0,0.032 0.224,0.288 0.256,0.256 0.704,0.544 0.48,0.288 1.184,0.544 0.736,0.224 1.728,0.224 1.824,0 2.848,-0.928 1.024,-0.96 1.024,-2.24 0,-0.928 -0.384,-1.504 -0.384,-0.608 -1.056,-0.96 -0.64,-0.384 -1.504,-0.576 -0.832,-0.224 -1.792,-0.416 -0.256,-0.032 -0.864,-0.16 -0.576,-0.128 -1.312,-0.416 -0.704,-0.288 -1.504,-0.736 -0.768,-0.48 -1.408,-1.184 -0.608,-0.736 -1.024,-1.728 -0.416,-1.024 -0.416,-2.4 0,-0.064 0.032,-0.576 0.064,-0.544 0.288,-1.28 0.256,-0.768 0.768,-1.632 0.544,-0.864 1.504,-1.568 0.96,-0.736 2.4,-1.216 1.472,-0.48 3.584,-0.48 1.952,0 3.712,0.832 1.76,0.832 3.008,2.272 l -3.264,2.528 q -0.352,-0.608 -0.992,-0.928 -0.64,-0.352 -1.28,-0.512 -0.768,-0.16 -1.632,-0.192 -1.824,0 -2.848,0.736 -1.024,0.704 -1.024,2.016 0,0.928 0.32,1.472 0.32,0.512 0.864,0.8 0.576,0.288 1.376,0.448 0.8,0.128 1.76,0.32 z" stroke-width="0" stroke-linejoin="miter" stroke-miterlimit="2" fill="#e6a626" stroke="#e6a626" transform="translate(0 373.954) translate(247.77350000000007 38) scale(1.5) translate(-335.83375 24)"></path>
        <path id="path139097" style="font-style:normal;font-weight:700;font-size:32px;line-height:1;font-family:'Meedori Sans';font-variant-ligatures:none;text-align:center;text-anchor:middle" d="m 373.01625,-20 h -12.032 v 5.984 h 10.24 v 4 h -10.24 V -4 h 12.032 v 4 h -16.032 v -24 h 16.032 v 4 z" stroke-width="0" stroke-linejoin="miter" stroke-miterlimit="2" fill="#e6a626" stroke="#e6a626" transform="translate(0 373.954) translate(279.49924999999996 38) scale(1.5) translate(-356.98425 24)"></path>
        <path id="path139099" style="font-style:normal;font-weight:700;font-size:32px;line-height:1;font-family:'Meedori Sans';font-variant-ligatures:none;text-align:center;text-anchor:middle" d="m 398.53475,-3.616 q -1.696,1.664 -3.872,2.624 -2.176,0.928 -4.544,0.928 -2.336,0 -4.512,-0.928 -2.144,-0.96 -3.808,-2.592 -1.664,-1.632 -2.656,-3.808 -0.992,-2.176 -0.992,-4.64 0,-2.336 0.928,-4.48 0.96,-2.176 2.592,-3.84 1.632,-1.664 3.808,-2.656 2.176,-0.992 4.64,-0.992 2.368,0 4.544,0.96 2.176,0.928 3.872,2.592 l -2.656,2.656 q -1.312,-0.992 -2.72,-1.6 -1.376,-0.64 -3.04,-0.64 -1.664,0 -3.136,0.64 -1.44,0.608 -2.528,1.696 -1.056,1.088 -1.696,2.56 -0.608,1.44 -0.608,3.104 0,1.664 0.608,3.136 0.64,1.44 1.696,2.528 1.088,1.056 2.528,1.696 1.472,0.608 3.136,0.608 1.664,0 3.008,-0.608 1.344,-0.608 2.336,-1.6 z" stroke-width="0" stroke-linejoin="miter" stroke-miterlimit="2" fill="#e6a626" stroke="#e6a626" transform="translate(0 373.954) translate(311.249 38) scale(1.5) translate(-378.15075 24)"></path>
        <path id="path139101" style="font-style:normal;font-weight:700;font-size:32px;line-height:1;font-family:'Meedori Sans';font-variant-ligatures:none;text-align:center;text-anchor:middle" d="m 423.06425,-24 v 15.104 q 0,0.32 -0.064,1.12 -0.032,0.768 -0.288,1.76 -0.256,0.992 -0.832,2.08 -0.544,1.056 -1.6,1.952 -1.024,0.864 -2.624,1.44 -1.568,0.544 -3.904,0.544 -2.208,0 -3.744,-0.544 -1.536,-0.576 -2.528,-1.44 -0.992,-0.896 -1.536,-1.952 -0.512,-1.088 -0.768,-2.08 -0.224,-0.992 -0.288,-1.76 -0.032,-0.8 -0.032,-1.12 V -24 h 4 v 15.104 q 0,0.352 0.064,1.216 0.096,0.864 0.544,1.792 0.448,0.896 1.44,1.6 1.024,0.704 2.848,0.704 1.984,0 3.04,-0.704 1.088,-0.704 1.568,-1.6 0.512,-0.928 0.576,-1.792 0.096,-0.864 0.096,-1.216 V -24 Z" stroke-width="0" stroke-linejoin="miter" stroke-miterlimit="2" fill="#e6a626" stroke="#e6a626" transform="translate(0 373.954) translate(351.30724999999995 38) scale(1.5) translate(-404.85625 24)"></path>
        <path id="path139103" style="font-style:normal;font-weight:700;font-size:32px;line-height:1;font-family:'Meedori Sans';font-variant-ligatures:none;text-align:center;text-anchor:middle" d="m 448.26525,0 h -4.448 l -5.312,-9.792 h -4.928 V 0 h -3.968 v -24 h 11.552 q 1.856,0.096 3.328,0.896 0.608,0.352 1.216,0.864 0.608,0.512 1.056,1.248 0.48,0.736 0.768,1.76 0.288,0.992 0.288,2.336 0,2.176 -0.704,3.584 -0.704,1.376 -1.6,2.176 -0.864,0.768 -1.664,1.056 -0.768,0.288 -0.928,0.288 z m -14.688,-13.76 h 7.584 q 0.736,-0.032 1.312,-0.384 0.512,-0.288 0.928,-0.928 0.416,-0.64 0.416,-1.824 0,-1.152 -0.416,-1.792 -0.416,-0.64 -0.928,-0.928 -0.576,-0.352 -1.312,-0.384 h -7.584 z" stroke-width="0" stroke-linejoin="miter" stroke-miterlimit="2" fill="#e6a626" stroke="#e6a626" transform="translate(0 373.954) translate(388.4367499999999 38) scale(1.5) translate(-429.60925 24)"></path>
        <path id="path139105" style="font-style:normal;font-weight:700;font-size:32px;line-height:1;font-family:'Meedori Sans';font-variant-ligatures:none;text-align:center;text-anchor:middle" d="m 453.67175,-24 h 3.968 V 0 h -3.968 z" stroke-width="0" stroke-linejoin="miter" stroke-miterlimit="2" fill="#e6a626" stroke="#e6a626" transform="translate(0 373.954) translate(424.53049999999985 38) scale(1.5) translate(-453.67175 24)"></path>
        <path id="path139107" style="font-style:normal;font-weight:700;font-size:32px;line-height:1;font-family:'Meedori Sans';font-variant-ligatures:none;text-align:center;text-anchor:middle" d="m 482.47275,-20 h -8 V 0 h -4 v -20 h -8 v -4 h 20 z" stroke-width="0" stroke-linejoin="miter" stroke-miterlimit="2" fill="#e6a626" stroke="#e6a626" transform="translate(0 373.954) translate(437.73199999999986 38) scale(1.5) translate(-462.47275 24)"></path>
        <path id="path139109" style="font-style:normal;font-weight:700;font-size:32px;line-height:1;font-family:'Meedori Sans';font-variant-ligatures:none;text-align:center;text-anchor:middle" d="M 500.05775,-11.104 V 0 h -4 V -11.104 L 486.26575,-24 h 4.896 l 7.136,8.896 6.656,-8.896 h 5.344 z" stroke-width="0" stroke-linejoin="miter" stroke-miterlimit="2" fill="#e6a626" stroke="#e6a626" transform="translate(0 373.954) translate(473.42149999999987 38) scale(1.5) translate(-486.26575 24)"></path>
        <path id="path139111" style="font-style:normal;font-weight:700;font-size:32px;line-height:1;font-family:'Meedori Sans';font-variant-ligatures:none;text-align:center;text-anchor:middle" d="m 530.72225,-14.208 q 0.256,0.032 0.864,0.128 0.64,0.096 1.408,0.384 0.8,0.256 1.632,0.704 0.832,0.448 1.504,1.248 0.672,0.768 1.12,1.888 0.448,1.12 0.448,2.688 0,0.064 -0.064,0.64 -0.032,0.544 -0.288,1.344 -0.256,0.8 -0.768,1.696 -0.512,0.896 -1.472,1.696 -0.96,0.768 -2.432,1.28 -1.44,0.512 -3.552,0.512 -1.952,0 -3.712,-0.8 -1.728,-0.832 -2.976,-2.272 l 3.264,-2.528 q 0,0.032 0.224,0.288 0.256,0.256 0.704,0.544 0.48,0.288 1.184,0.544 0.736,0.224 1.728,0.224 1.824,0 2.848,-0.928 1.024,-0.96 1.024,-2.24 0,-0.928 -0.384,-1.504 -0.384,-0.608 -1.056,-0.96 -0.64,-0.384 -1.504,-0.576 -0.832,-0.224 -1.792,-0.416 -0.256,-0.032 -0.864,-0.16 -0.576,-0.128 -1.312,-0.416 -0.704,-0.288 -1.504,-0.736 -0.768,-0.48 -1.408,-1.184 -0.608,-0.736 -1.024,-1.728 -0.416,-1.024 -0.416,-2.4 0,-0.064 0.032,-0.576 0.064,-0.544 0.288,-1.28 0.256,-0.768 0.768,-1.632 0.544,-0.864 1.504,-1.568 0.96,-0.736 2.4,-1.216 1.472,-0.48 3.584,-0.48 1.952,0 3.712,0.832 1.76,0.832 3.008,2.272 l -3.264,2.528 q -0.352,-0.608 -0.992,-0.928 -0.64,-0.352 -1.28,-0.512 -0.768,-0.16 -1.632,-0.192 -1.824,0 -2.848,0.736 -1.024,0.704 -1.024,2.016 0,0.928 0.32,1.472 0.32,0.512 0.864,0.8 0.576,0.288 1.376,0.448 0.8,0.128 1.76,0.32 z" stroke-width="0" stroke-linejoin="miter" stroke-miterlimit="2" fill="#e6a626" stroke="#e6a626" transform="translate(0 373.954) translate(527.2422499999999 38) scale(1.5) translate(-522.14625 24)"></path>
        <path id="path139113" style="font-style:normal;font-weight:700;font-size:32px;line-height:1;font-family:'Meedori Sans';font-variant-ligatures:none;text-align:center;text-anchor:middle" d="m 559.32875,-20 h -12.032 v 5.984 h 10.24 v 4 h -10.24 V -4 h 12.032 v 4 h -16.032 v -24 h 16.032 v 4 z" stroke-width="0" stroke-linejoin="miter" stroke-miterlimit="2" fill="#e6a626" stroke="#e6a626" transform="translate(0 373.954) translate(558.9679999999998 38) scale(1.5) translate(-543.29675 24)"></path>
        <path id="path139115" style="font-style:normal;font-weight:700;font-size:32px;line-height:1;font-family:'Meedori Sans';font-variant-ligatures:none;text-align:center;text-anchor:middle" d="m 584.01525,0 h -4.448 l -5.312,-9.792 h -4.928 V 0 h -3.968 v -24 h 11.552 q 1.856,0.096 3.328,0.896 0.608,0.352 1.216,0.864 0.608,0.512 1.056,1.248 0.48,0.736 0.768,1.76 0.288,0.992 0.288,2.336 0,2.176 -0.704,3.584 -0.704,1.376 -1.6,2.176 -0.864,0.768 -1.664,1.056 -0.768,0.288 -0.928,0.288 z m -14.688,-13.76 h 7.584 q 0.736,-0.032 1.312,-0.384 0.512,-0.288 0.928,-0.928 0.416,-0.64 0.416,-1.824 0,-1.152 -0.416,-1.792 -0.416,-0.64 -0.928,-0.928 -0.576,-0.352 -1.312,-0.384 h -7.584 z" stroke-width="0" stroke-linejoin="miter" stroke-miterlimit="2" fill="#e6a626" stroke="#e6a626" transform="translate(0 373.954) translate(592.0617499999998 38) scale(1.5) translate(-565.35925 24)"></path>
        <path id="path139117" style="font-style:normal;font-weight:700;font-size:32px;line-height:1;font-family:'Meedori Sans';font-variant-ligatures:none;text-align:center;text-anchor:middle" d="m 606.44575,-24 h 4.448 l -12,24 -12,-24 h 4.864 l 7.136,15.136 z" stroke-width="0" stroke-linejoin="miter" stroke-miterlimit="2" fill="#e6a626" stroke="#e6a626" transform="translate(0 373.954) translate(624.3634999999999 38) scale(1.5) translate(-586.89375 24)"></path>
        <path id="path139119" style="font-style:normal;font-weight:700;font-size:32px;line-height:1;font-family:'Meedori Sans';font-variant-ligatures:none;text-align:center;text-anchor:middle" d="m 615.04675,-24 h 3.968 V 0 h -3.968 z" stroke-width="0" stroke-linejoin="miter" stroke-miterlimit="2" fill="#e6a626" stroke="#e6a626" transform="translate(0 373.954) translate(666.593 38) scale(1.5) translate(-615.04675 24)"></path>
        <path id="path139121" style="font-style:normal;font-weight:700;font-size:32px;line-height:1;font-family:'Meedori Sans';font-variant-ligatures:none;text-align:center;text-anchor:middle" d="m 645.15975,-3.616 q -1.696,1.664 -3.872,2.624 -2.176,0.928 -4.544,0.928 -2.336,0 -4.512,-0.928 -2.144,-0.96 -3.808,-2.592 -1.664,-1.632 -2.656,-3.808 -0.992,-2.176 -0.992,-4.64 0,-2.336 0.928,-4.48 0.96,-2.176 2.592,-3.84 1.632,-1.664 3.808,-2.656 2.176,-0.992 4.64,-0.992 2.368,0 4.544,0.96 2.176,0.928 3.872,2.592 l -2.656,2.656 q -1.312,-0.992 -2.72,-1.6 -1.376,-0.64 -3.04,-0.64 -1.664,0 -3.136,0.64 -1.44,0.608 -2.528,1.696 -1.056,1.088 -1.696,2.56 -0.608,1.44 -0.608,3.104 0,1.664 0.608,3.136 0.64,1.44 1.696,2.528 1.088,1.056 2.528,1.696 1.472,0.608 3.136,0.608 1.664,0 3.008,-0.608 1.344,-0.608 2.336,-1.6 z" stroke-width="0" stroke-linejoin="miter" stroke-miterlimit="2" fill="#e6a626" stroke="#e6a626" transform="translate(0 373.954) translate(681.1865 38) scale(1.5) translate(-624.77575 24)"></path>
        <path id="path139123" style="font-style:normal;font-weight:700;font-size:32px;line-height:1;font-family:'Meedori Sans';font-variant-ligatures:none;text-align:center;text-anchor:middle" d="m 667.64125,-20 h -12.032 v 5.984 h 10.24 v 4 h -10.24 V -4 h 12.032 v 4 h -16.032 v -24 h 16.032 v 4 z" stroke-width="0" stroke-linejoin="miter" stroke-miterlimit="2" fill="#e6a626" stroke="#e6a626" transform="translate(0 373.954) translate(721.43675 38) scale(1.5) translate(-651.60925 24)"></path>
        <path id="path139125" style="font-style:normal;font-weight:700;font-size:32px;line-height:1;font-family:'Meedori Sans';font-variant-ligatures:none;text-align:center;text-anchor:middle" d="m 681.15975,-14.208 q 0.256,0.032 0.864,0.128 0.64,0.096 1.408,0.384 0.8,0.256 1.632,0.704 0.832,0.448 1.504,1.248 0.672,0.768 1.12,1.888 0.448,1.12 0.448,2.688 0,0.064 -0.064,0.64 -0.032,0.544 -0.288,1.344 -0.256,0.8 -0.768,1.696 -0.512,0.896 -1.472,1.696 -0.96,0.768 -2.432,1.28 -1.44,0.512 -3.552,0.512 -1.952,0 -3.712,-0.8 -1.728,-0.832 -2.976,-2.272 l 3.264,-2.528 q 0,0.032 0.224,0.288 0.256,0.256 0.704,0.544 0.48,0.288 1.184,0.544 0.736,0.224 1.728,0.224 1.824,0 2.848,-0.928 1.024,-0.96 1.024,-2.24 0,-0.928 -0.384,-1.504 -0.384,-0.608 -1.056,-0.96 -0.64,-0.384 -1.504,-0.576 -0.832,-0.224 -1.792,-0.416 -0.256,-0.032 -0.864,-0.16 -0.576,-0.128 -1.312,-0.416 -0.704,-0.288 -1.504,-0.736 -0.768,-0.48 -1.408,-1.184 -0.608,-0.736 -1.024,-1.728 -0.416,-1.024 -0.416,-2.4 0,-0.064 0.032,-0.576 0.064,-0.544 0.288,-1.28 0.256,-0.768 0.768,-1.632 0.544,-0.864 1.504,-1.568 0.96,-0.736 2.4,-1.216 1.472,-0.48 3.584,-0.48 1.952,0 3.712,0.832 1.76,0.832 3.008,2.272 l -3.264,2.528 q -0.352,-0.608 -0.992,-0.928 -0.64,-0.352 -1.28,-0.512 -0.768,-0.16 -1.632,-0.192 -1.824,0 -2.848,0.736 -1.024,0.704 -1.024,2.016 0,0.928 0.32,1.472 0.32,0.512 0.864,0.8 0.576,0.288 1.376,0.448 0.8,0.128 1.76,0.32 z" stroke-width="0" stroke-linejoin="miter" stroke-miterlimit="2" fill="#e6a626" stroke="#e6a626" transform="translate(0 373.954) translate(752.8985 38) scale(1.5) translate(-672.58375 24)"></path>
      </g>
      <g id="title" style="font-style:normal;font-weight:700;font-size:72px;line-height:1;font-family:'Meedori Sans';font-variant-ligatures:none;text-align:center;text-anchor:middle" transform="translate(0 0)">
        <path id="path139128" style="font-style:normal;font-weight:700;font-size:72px;line-height:1;font-family:'Meedori Sans';font-variant-ligatures:none;text-align:center;text-anchor:middle" d="M 339.164,-54.072 366.236,0 H 355.292 L 339.164,-33.984 323.108,0 h -10.944 l 27,-54.072 z" stroke-width="0" stroke-linejoin="miter" stroke-miterlimit="2" fill="#e6a626" stroke="#e6a626" transform="translate(0 297.082) translate(212.20381250000003 22.964) scale(1.5) translate(-312.164 54.072)"></path>
        <path id="path139130" style="font-style:normal;font-weight:700;font-size:72px;line-height:1;font-family:'Meedori Sans';font-variant-ligatures:none;text-align:center;text-anchor:middle" d="m 403.33175,-32.76 27.072,-21.312 V 0 h -9 v -35.496 l -18.072,14.256 -18,-14.256 V 0 h -9 v -54.072 z" stroke-width="0" stroke-linejoin="miter" stroke-miterlimit="2" fill="#e29828" stroke="#e29828" transform="translate(0 297.082) translate(308.4554375 22.964) scale(1.5) translate(-376.33175 54.072)"></path>
        <path id="path139132" style="font-style:normal;font-weight:700;font-size:72px;line-height:1;font-family:'Meedori Sans';font-variant-ligatures:none;text-align:center;text-anchor:middle" d="m 487.35462,0 h -10.00799 l -11.952,-22.032 H 454.30662 V 0 h -8.928 v -54 h 25.99201 q 4.17599,0.216 7.488,2.016 1.368,0.792 2.73599,1.944 1.368,1.152 2.376,2.808 1.08001,1.656 1.728,3.96 0.64801,2.232 0.64801,5.256 0,4.896 -1.584,8.064 -1.58401,3.096 -3.60001,4.896 -1.944,1.728 -3.74399,2.376 -1.72801,0.648 -2.08801,0.648 z m -33.048,-30.96 h 17.06401 q 1.65599,-0.072 2.952,-0.864 1.15199,-0.648 2.08799,-2.088 0.93601,-1.44 0.93601,-4.104 0,-2.592 -0.93601,-4.032 -0.936,-1.44 -2.08799,-2.088 -1.29601,-0.792 -2.952,-0.864 h -17.06401 z" stroke-width="0" stroke-linejoin="miter" stroke-miterlimit="2" fill="#de8a2a" stroke="#de8a2a" transform="translate(0 297.082) translate(412.02574250000004 23.072000000000003) scale(1.5) translate(-445.37862 54)"></path>
        <path id="path139134" style="font-style:normal;font-weight:700;font-size:72px;line-height:1;font-family:'Meedori Sans';font-variant-ligatures:none;text-align:center;text-anchor:middle" d="m 540.19925,-54 v 33.984 q 0,0.72 -0.144,2.52 -0.072,1.728 -0.648,3.96 -0.576,2.232 -1.872,4.68 -1.224,2.376 -3.6,4.392 -2.304,1.944 -5.904,3.24 -3.528,1.224 -8.784,1.224 -4.968,0 -8.424,-1.224 -3.456,-1.296 -5.688,-3.24 -2.232,-2.016 -3.456,-4.392 -1.152,-2.448 -1.728,-4.68 -0.504,-2.232 -0.648,-3.96 -0.072,-1.8 -0.072,-2.52 V -54 h 9 v 33.984 q 0,0.792 0.144,2.736 0.216,1.944 1.224,4.032 1.008,2.016 3.24,3.6 2.304,1.584 6.408,1.584 4.464,0 6.84,-1.584 2.448,-1.584 3.528,-3.6 1.152,-2.088 1.296,-4.032 0.216,-1.944 0.216,-2.736 V -54 Z" stroke-width="0" stroke-linejoin="miter" stroke-miterlimit="2" fill="#da7c2c" stroke="#da7c2c" transform="translate(0 297.082) translate(492.8046875 23.072000000000003) scale(1.5) translate(-499.23125 54)"></path>
        <path id="path139136" style="font-style:normal;font-weight:700;font-size:72px;line-height:1;font-family:'Meedori Sans';font-variant-ligatures:none;text-align:center;text-anchor:middle" d="m 595.8215,-45 h -18 V 0 h -9 v -45 h -18 v -9 h 45 z" stroke-width="0" stroke-linejoin="miter" stroke-miterlimit="2" fill="#d66e2d" stroke="#d66e2d" transform="translate(0 297.082) translate(570.1900625000001 23.072000000000003) scale(1.5) translate(-550.8215 54)"></path>
        <path id="path139138" style="font-style:normal;font-weight:700;font-size:72px;line-height:1;font-family:'Meedori Sans';font-variant-ligatures:none;text-align:center;text-anchor:middle" d="M 647.6435,-54 V 0 h -9 v -21.96 h -22.968 V 0 h -9 v -54 h 9 v 23.04 h 22.968 V -54 Z" stroke-width="0" stroke-linejoin="miter" stroke-miterlimit="2" fill="#d2602f" stroke="#d2602f" transform="translate(0 297.082) translate(653.9710625000001 23.072000000000003) scale(1.5) translate(-606.6755 54)"></path>
        <path id="path139140" style="font-style:normal;font-weight:700;font-size:72px;line-height:1;font-family:'Meedori Sans';font-variant-ligatures:none;text-align:center;text-anchor:middle" d="M 684.82025,-54.072 711.89225,0 h -9.936 l -6.12,-10.944 h -21.96 L 668.76425,0 h -10.944 z m -5.976,33.984 h 12.96 l -6.984,-13.896 z" stroke-width="0" stroke-linejoin="miter" stroke-miterlimit="2" fill="#ce5231" stroke="#ce5231" transform="translate(0 297.082) translate(730.6881875000001 22.964) scale(1.5) translate(-657.82025 54.072)"></path>
      </g>
      <image xlink:href="" id="icon" style="display: none;" x="0" y="0"></image>
    </g>
  </g>
</svg>